<?xml version="1.0" encoding="UTF-8" standalone="no"?>
<svg width="46px" height="46px" viewBox="0 0 46 46" version="1.1" xmlns="http://www.w3.org/2000/svg" xmlns:xlink="http://www.w3.org/1999/xlink" xmlns:sketch="http://www.bohemiancoding.com/sketch/ns">   
    <title>Twitter</title>
    <desc></desc>
    <defs></defs>
    <g id="twitter" stroke="#FFFFFF" stroke-width="1" fill="none" fill-rule="evenodd">
        <g transform="translate(-719.000000, -16086.000000)" stroke-width="1.5">
            <g transform="translate(720.000000, 16087.000000)">
                <path d="M31.7574788,16.2584158 L31.759045,16.2584158 M26.9313688,16 C27.9478041,16 28.8667462,16.4291268 29.511611,17.1154947 C30.3158321,16.958096 31.0738517,16.6628756 31.7574788,16.2584158 C31.4920154,17.0833885 30.9325061,17.7779787 30.2026773,18.2129786 C30.9176276,18.1295808 31.599297,17.9392928 32.2324157,17.6577762 C31.759045,18.3668534 31.1595987,18.9886174 30.4689239,19.4886127 C30.4759716,19.6401383 30.4794954,19.7912724 30.4794954,19.9451472 C30.4794954,24.6169909 26.923538,30.0033933 20.4204663,30.0033933 C18.4228342,30.0033933 16.565373,29.4192171 15,28.415311 C15.2783842,28.4497664 15.5591177,28.4642534 15.8433751,28.4642534 C17.5015428,28.4642534 19.0246297,27.9004372 20.2337022,26.950955 C18.6875146,26.9239389 17.3813404,25.9024135 16.9326366,24.4960053 C17.1479831,24.5386831 17.3692027,24.5602177 17.5970784,24.5602177 C17.9204896,24.5602177 18.2325462,24.51754 18.5277666,24.4357083 C16.9126681,24.111514 15.692241,22.681222 15.692241,20.9690218 L15.692241,20.925561 C16.1699186,21.1894583 16.7145494,21.3499893 17.2944187,21.3668254 C16.3461112,20.7337068 15.721998,19.6507099 15.721998,18.4240181 C15.721998,17.7756295 15.8962328,17.1691355 16.2008502,16.6460394 C17.9435904,18.7858002 20.5496742,20.1929914 23.4869999,20.3398186 C23.427486,20.0814028 23.3953798,19.8112409 23.3953798,19.5344228 C23.3953798,17.5822092 24.9791552,16 26.9313688,16" stroke-linecap="round" stroke-linejoin="round"></path>
                <circle cx="22" cy="22" r="22"></circle>
            </g>
        </g>
    </g>
</svg>